<svg width="71" height="70" viewBox="0 0 71 70" fill="none" xmlns="http://www.w3.org/2000/svg">
<g filter="url(#filter0_i_369_12638)">
<mask id="mask0_369_12638" style="mask-type:alpha" maskUnits="userSpaceOnUse" x="9" y="8" width="53" height="53">
<path d="M29.6686 60.878C27.8951 61.0175 26.1388 60.4467 24.7861 59.2913L12.998 49.2223C11.6453 48.0668 10.807 46.4214 10.6675 44.6479L9.45195 29.1925C9.31246 27.419 9.88321 25.6627 11.0386 24.31L21.1077 12.5219C22.2631 11.1692 23.9086 10.3309 25.6821 10.1914L41.1374 8.97584C42.9109 8.83635 44.6672 9.4071 46.0199 10.5625L57.808 20.6316C59.1607 21.787 59.999 23.4325 60.1385 25.206L61.3541 40.6613C61.4936 42.4348 60.9228 44.1911 59.7674 45.5438L49.6984 57.3319C48.5429 58.6846 46.8975 59.5229 45.124 59.6624L29.6686 60.878Z" fill="#D9D9D9"/>
</mask>
<g mask="url(#mask0_369_12638)">
<path d="M29.6686 60.878C27.8951 61.0175 26.1388 60.4467 24.7861 59.2913L12.998 49.2223C11.6453 48.0668 10.807 46.4214 10.6675 44.6479L9.45195 29.1925C9.31246 27.419 9.88321 25.6627 11.0386 24.31L21.1077 12.5219C22.2631 11.1692 23.9086 10.3309 25.6821 10.1914L41.1374 8.97584C42.9109 8.83635 44.6672 9.4071 46.0199 10.5625L57.808 20.6316C59.1607 21.787 59.999 23.4325 60.1385 25.206L61.3541 40.6613C61.4936 42.4348 60.9228 44.1911 59.7674 45.5438L49.6984 57.3319C48.5429 58.6846 46.8975 59.5229 45.124 59.6624L29.6686 60.878Z" fill="#FF5F6D"/>
<g filter="url(#filter1_f_369_12638)">
<path fill-rule="evenodd" clip-rule="evenodd" d="M19.5635 75.7212C20.8815 76.847 22.5927 77.4031 24.3207 77.2672L53.0176 75.0101C54.7457 74.8742 56.3489 74.0574 57.4747 72.7394L76.1705 50.8517C77.2963 49.5337 77.8524 47.8224 77.7165 46.0944L75.4595 17.3975C75.3236 15.6695 74.5068 14.0662 73.1888 12.9404L51.301 -5.75541C50.1786 -6.71419 48.7709 -7.25977 47.3105 -7.3166L58.0023 1.81599C59.3203 2.94179 60.1371 4.54505 60.273 6.27308L61.6832 24.2033C61.8192 25.9313 61.263 27.6425 60.1372 28.9606L48.4559 42.6363C47.3301 43.9543 45.7268 44.7711 43.9988 44.907L26.0686 46.3172C24.3405 46.4531 22.6293 45.897 21.3113 44.7712L7.63555 33.0899C6.31754 31.9641 5.50074 30.3608 5.36483 28.6328L3.9546 10.7026C3.87433 9.68204 4.03543 8.66738 4.41269 7.7361L-5.30602 19.1141C-6.43182 20.4321 -6.98793 22.1433 -6.85202 23.8714L-4.59499 52.5683C-4.45908 54.2963 -3.64228 55.8996 -2.32427 57.0254L19.5635 75.7212Z" fill="#FFC371"/>
</g>
</g>
</g>
<defs>
<filter id="filter0_i_369_12638" x="9.43127" y="8.9552" width="51.9435" height="51.9435" filterUnits="userSpaceOnUse" color-interpolation-filters="sRGB">
<feFlood flood-opacity="0" result="BackgroundImageFix"/>
<feBlend mode="normal" in="SourceGraphic" in2="BackgroundImageFix" result="shape"/>
<feColorMatrix in="SourceAlpha" type="matrix" values="0 0 0 0 0 0 0 0 0 0 0 0 0 0 0 0 0 0 127 0" result="hardAlpha"/>
<feOffset/>
<feGaussianBlur stdDeviation="3.35383"/>
<feComposite in2="hardAlpha" operator="arithmetic" k2="-1" k3="1"/>
<feColorMatrix type="matrix" values="0 0 0 0 1 0 0 0 0 1 0 0 0 0 1 0 0 0 1 0"/>
<feBlend mode="normal" in2="shape" result="effect1_innerShadow_369_12638"/>
</filter>
<filter id="filter1_f_369_12638" x="-32.2887" y="-32.7331" width="135.442" height="135.437" filterUnits="userSpaceOnUse" color-interpolation-filters="sRGB">
<feFlood flood-opacity="0" result="BackgroundImageFix"/>
<feBlend mode="normal" in="SourceGraphic" in2="BackgroundImageFix" result="shape"/>
<feGaussianBlur stdDeviation="12.7082" result="effect1_foregroundBlur_369_12638"/>
</filter>
</defs>
</svg>
