<svg width="32" height="32" viewBox="0 0 32 32" fill="none" xmlns="http://www.w3.org/2000/svg">
<g filter="url(#filter0_i_369_12661)">
<mask id="mask0_369_12661" style="mask-type:alpha" maskUnits="userSpaceOnUse" x="4" y="4" width="23" height="23">
<path d="M10.5474 5.14591C10.7947 4.89011 11.1335 4.74304 11.4892 4.73704L19.4993 4.60189C19.855 4.59589 20.1986 4.73145 20.4544 4.97876L26.2139 10.5471C26.4697 10.7945 26.6167 11.1332 26.6227 11.489L26.7579 19.499C26.7639 19.8548 26.6283 20.1983 26.381 20.4541L20.8126 26.2136C20.5653 26.4694 20.2265 26.6165 19.8708 26.6225L11.8607 26.7577C11.505 26.7637 11.1614 26.6281 10.9056 26.3808L5.14613 20.8124C4.89034 20.5651 4.74326 20.2263 4.73726 19.8706L4.60211 11.8605C4.59611 11.5048 4.73167 11.1612 4.97898 10.9054L10.5474 5.14591Z" fill="#D9D9D9"/>
</mask>
<g mask="url(#mask0_369_12661)">
<path d="M10.5474 5.14591C10.7947 4.89011 11.1335 4.74304 11.4892 4.73704L19.4993 4.60189C19.855 4.59589 20.1986 4.73145 20.4544 4.97876L26.2139 10.5471C26.4697 10.7945 26.6167 11.1332 26.6227 11.489L26.7579 19.499C26.7639 19.8548 26.6283 20.1983 26.381 20.4541L20.8126 26.2136C20.5653 26.4694 20.2265 26.6165 19.8708 26.6225L11.8607 26.7577C11.505 26.7637 11.1614 26.6281 10.9056 26.3808L5.14613 20.8124C4.89034 20.5651 4.74326 20.2263 4.73726 19.8706L4.60211 11.8605C4.59611 11.5048 4.73167 11.1612 4.97898 10.9054L10.5474 5.14591Z" fill="#A870EF"/>
<g filter="url(#filter1_f_369_12661)">
<circle cx="21.2161" cy="21.2161" r="21.2161" transform="matrix(-0.917292 0.398215 0.398215 0.917292 18.1353 -31.6443)" fill="#FDB99B"/>
</g>
</g>
</g>
<defs>
<filter id="filter0_i_369_12661" x="4.60181" y="4.60168" width="22.1562" height="22.1561" filterUnits="userSpaceOnUse" color-interpolation-filters="sRGB">
<feFlood flood-opacity="0" result="BackgroundImageFix"/>
<feBlend mode="normal" in="SourceGraphic" in2="BackgroundImageFix" result="shape"/>
<feColorMatrix in="SourceAlpha" type="matrix" values="0 0 0 0 0 0 0 0 0 0 0 0 0 0 0 0 0 0 127 0" result="hardAlpha"/>
<feOffset/>
<feGaussianBlur stdDeviation="1.11794"/>
<feComposite in2="hardAlpha" operator="arithmetic" k2="-1" k3="1"/>
<feColorMatrix type="matrix" values="0 0 0 0 1 0 0 0 0 1 0 0 0 0 1 0 0 0 1 0"/>
<feBlend mode="normal" in2="shape" result="effect1_innerShadow_369_12661"/>
</filter>
<filter id="filter1_f_369_12661" x="-21.9247" y="-32.7814" width="58.0943" height="58.0942" filterUnits="userSpaceOnUse" color-interpolation-filters="sRGB">
<feFlood flood-opacity="0" result="BackgroundImageFix"/>
<feBlend mode="normal" in="SourceGraphic" in2="BackgroundImageFix" result="shape"/>
<feGaussianBlur stdDeviation="3.9128" result="effect1_foregroundBlur_369_12661"/>
</filter>
</defs>
</svg>
