<svg width="95" height="95" viewBox="0 0 95 95" fill="none" xmlns="http://www.w3.org/2000/svg">
<g filter="url(#filter0_i_369_12654)">
<mask id="mask0_369_12654" style="mask-type:alpha" maskUnits="userSpaceOnUse" x="14" y="14" width="67" height="67">
<path d="M31.5706 16.9989C32.8071 15.7199 34.5011 14.9845 36.2798 14.9545L57.9989 14.5881C59.7777 14.5581 61.4955 15.2359 62.7744 16.4724L78.3913 31.571C79.6703 32.8076 80.4057 34.5015 80.4357 36.2802L80.8021 57.9994C80.8321 59.7781 80.1543 61.4959 78.9178 62.7749L63.8191 78.3918C62.5826 79.6707 60.8887 80.4061 59.1099 80.4361L37.3908 80.8026C35.6121 80.8326 33.8943 80.1548 32.6153 78.9182L16.9984 63.8196C15.7195 62.5831 14.9841 60.8891 14.9541 59.1104L14.5876 37.3912C14.5576 35.6125 15.2354 33.8947 16.472 32.6157L31.5706 16.9989Z" fill="#D9D9D9"/>
</mask>
<g mask="url(#mask0_369_12654)">
<path d="M31.5706 16.9989C32.8071 15.7199 34.5011 14.9845 36.2798 14.9545L57.9989 14.5881C59.7777 14.5581 61.4955 15.2359 62.7744 16.4724L78.3913 31.571C79.6703 32.8076 80.4057 34.5015 80.4357 36.2802L80.8021 57.9994C80.8321 59.7781 80.1543 61.4959 78.9178 62.7749L63.8191 78.3918C62.5826 79.6707 60.8887 80.4061 59.1099 80.4361L37.3908 80.8026C35.6121 80.8326 33.8943 80.1548 32.6153 78.9182L16.9984 63.8196C15.7195 62.5831 14.9841 60.8891 14.9541 59.1104L14.5876 37.3912C14.5576 35.6125 15.2354 33.8947 16.472 32.6157L31.5706 16.9989Z" fill="#FF5F6D"/>
<g filter="url(#filter1_f_369_12654)">
<path fill-rule="evenodd" clip-rule="evenodd" d="M27.2769 -5.47204C25.5438 -5.44279 23.8933 -4.72627 22.6884 -3.48009L-4.33964 24.4757C-5.54446 25.7218 -6.2049 27.3956 -6.17566 29.1287L-5.51968 68.0081C-5.49044 69.7413 -4.77392 71.3918 -3.52774 72.5966L24.428 99.6247C25.6742 100.83 27.3479 101.49 29.0811 101.461L67.9605 100.805C69.6482 100.776 71.2577 100.096 72.4534 98.9096L53.3629 99.2317C51.6298 99.2609 49.9561 98.6005 48.7099 97.3957L30.8115 80.0912C29.5653 78.8864 28.8488 77.2359 28.8196 75.5027L28.3996 50.6106C28.3703 48.8774 29.0308 47.2037 30.2356 45.9575L47.54 28.0591C48.7449 26.8129 50.3954 26.0964 52.1285 26.0672L77.0207 25.6472C78.7538 25.6179 80.4276 26.2784 81.6737 27.4832L99.5721 44.7877C100.236 45.43 100.75 46.1989 101.09 47.0396L100.757 27.3245C100.728 25.5914 100.011 23.9409 98.7651 22.7361L70.8094 -4.29199C69.5632 -5.49682 67.8894 -6.15725 66.1563 -6.12801L27.2769 -5.47204Z" fill="#FFC371"/>
</g>
</g>
</g>
<defs>
<filter id="filter0_i_369_12654" x="14.5867" y="14.5872" width="66.2164" height="66.2163" filterUnits="userSpaceOnUse" color-interpolation-filters="sRGB">
<feFlood flood-opacity="0" result="BackgroundImageFix"/>
<feBlend mode="normal" in="SourceGraphic" in2="BackgroundImageFix" result="shape"/>
<feColorMatrix in="SourceAlpha" type="matrix" values="0 0 0 0 0 0 0 0 0 0 0 0 0 0 0 0 0 0 127 0" result="hardAlpha"/>
<feOffset/>
<feGaussianBlur stdDeviation="3.35383"/>
<feComposite in2="hardAlpha" operator="arithmetic" k2="-1" k3="1"/>
<feColorMatrix type="matrix" values="0 0 0 0 1 0 0 0 0 1 0 0 0 0 1 0 0 0 1 0"/>
<feBlend mode="normal" in2="shape" result="effect1_innerShadow_369_12654"/>
</filter>
<filter id="filter1_f_369_12654" x="-31.593" y="-31.5454" width="158.099" height="158.423" filterUnits="userSpaceOnUse" color-interpolation-filters="sRGB">
<feFlood flood-opacity="0" result="BackgroundImageFix"/>
<feBlend mode="normal" in="SourceGraphic" in2="BackgroundImageFix" result="shape"/>
<feGaussianBlur stdDeviation="12.7082" result="effect1_foregroundBlur_369_12654"/>
</filter>
</defs>
</svg>
