<svg width="273" height="108" viewBox="0 0 273 108" fill="none" xmlns="http://www.w3.org/2000/svg">
<mask id="mask0_365_5876" style="mask-type:alpha" maskUnits="userSpaceOnUse" x="0" y="0" width="108" height="108">
<ellipse cx="53.9977" cy="53.9979" rx="53.9979" ry="53.9979" transform="rotate(90 53.9977 53.9979)" fill="url(#paint0_linear_365_5876)"/>
</mask>
<g mask="url(#mask0_365_5876)">
<ellipse cx="53.9977" cy="53.9979" rx="53.9979" ry="53.9979" transform="rotate(90 53.9977 53.9979)" fill="url(#paint1_linear_365_5876)"/>
<path fill-rule="evenodd" clip-rule="evenodd" d="M11.5172 42.2755C12.6924 39.9762 16.1272 39.4056 18.0428 41.2425L18.0544 41.2536L39.1132 60.6964L49.3965 70.9797C49.5709 71.1541 49.8074 71.252 50.0539 71.252H72.3677C72.6711 71.252 72.9554 71.104 73.1294 70.8555L77.038 65.2717L88.3118 51.073L88.3413 51.0309C89.3725 49.5577 90.3699 48.8682 91.2186 48.632C91.9974 48.4152 92.8882 48.5134 93.9352 49.1315L114.578 66.963L116.807 64.3831L95.9524 46.3692L95.8372 46.2979C94.1051 45.2267 92.2043 44.819 90.3044 45.3478C88.4619 45.8606 86.8848 47.1813 85.579 49.0325L78.1285 58.416C77.5717 58.8291 76.9571 59.2556 76.2855 59.6823C72.449 62.1195 66.7622 64.5579 59.3514 64.5579C53.1271 64.5579 46.7619 61.6399 41.4473 58.2116L20.3898 38.77C16.8824 35.4226 10.7557 36.3298 8.4984 40.6915L-4.31641 63.461L-1.34555 65.133L11.5017 42.306L11.5172 42.2755Z" fill="white"/>
<path opacity="0.25" d="M108.852 71.1787H-0.857422V107.997H108.852V71.1787Z" fill="white"/>
<rect x="-6.63574" y="57.3887" width="121.266" height="2.32609" fill="white"/>
</g>
<path d="M211.593 93.1328C208.628 93.1328 206.416 92.2906 204.956 90.6062C203.519 88.9218 202.8 86.7658 202.8 84.1382C202.8 82.4538 203.126 80.9378 203.777 79.5903C204.429 78.2428 205.405 77.1761 206.708 76.39C208.033 75.604 209.661 75.2109 211.593 75.2109C213.479 75.2109 215.051 75.604 216.309 76.39C217.567 77.1536 218.499 78.1979 219.105 79.523C219.711 80.8255 220.015 82.3078 220.015 83.9697C220.015 84.5761 219.992 85.014 219.947 85.2835H206.876C207.011 87.0578 207.483 88.3154 208.291 89.0566C209.122 89.7977 210.256 90.1682 211.694 90.1682C214.03 90.1682 215.478 89.2811 216.04 87.5069H219.981C219.734 89.0341 218.948 90.3591 217.623 91.4821C216.32 92.5825 214.31 93.1328 211.593 93.1328ZM216.006 82.5212C215.916 81.0389 215.512 79.9384 214.793 79.2198C214.074 78.5011 213.019 78.1418 211.626 78.1418C210.234 78.1418 209.145 78.4786 208.359 79.1524C207.595 79.8261 207.124 80.9491 206.944 82.5212H216.006Z" fill="#593691"/>
<path d="M191.949 99.7038C189.277 99.7038 187.199 99.1423 185.717 98.0194C184.257 96.919 183.46 95.3806 183.325 93.4042H187.469C187.693 95.5602 189.232 96.6382 192.084 96.6382C193.768 96.6382 194.981 96.3126 195.722 95.6613C196.463 95.0325 196.834 93.9657 196.834 92.461V89.328C195.666 91.1921 193.678 92.1241 190.871 92.1241C188.244 92.1241 186.267 91.3493 184.942 89.7996C183.617 88.25 182.955 86.2175 182.955 83.7022C182.955 81.1644 183.617 79.1319 184.942 77.6047C186.267 76.0551 188.244 75.2803 190.871 75.2803C193.678 75.2803 195.666 76.2684 196.834 78.2448V75.7519H201.011V92.2252C201.011 94.718 200.292 96.5821 198.855 97.8173C197.44 99.075 195.138 99.7038 191.949 99.7038ZM187.166 83.7359C187.166 85.6448 187.547 87.0036 188.311 87.8121C189.075 88.5981 190.321 88.9911 192.05 88.9911C193.712 88.9911 194.925 88.5757 195.689 87.7447C196.452 86.9137 196.834 85.5775 196.834 83.7359C196.834 81.9167 196.452 80.5917 195.689 79.7607C194.925 78.9298 193.712 78.5143 192.05 78.5143C190.321 78.5143 189.075 78.9185 188.311 79.727C187.547 80.5131 187.166 81.8494 187.166 83.7359Z" fill="#593691"/>
<path d="M170.463 75.2112C173.293 75.2112 175.336 76.2892 176.594 78.4452V69.0127H180.771V92.594H176.594V89.899C175.336 92.055 173.293 93.133 170.463 93.133C167.88 93.133 165.926 92.3021 164.601 90.6402C163.299 88.9558 162.647 86.7998 162.647 84.1721C162.647 81.5445 163.299 79.3997 164.601 77.7378C165.926 76.0534 167.88 75.2112 170.463 75.2112ZM166.858 84.1721C166.858 86.126 167.218 87.5634 167.936 88.4841C168.678 89.3825 169.89 89.8317 171.575 89.8317C173.259 89.8317 174.517 89.3713 175.348 88.4505C176.179 87.5297 176.594 86.1036 176.594 84.1721C176.594 82.2407 176.179 80.8146 175.348 79.8938C174.517 78.973 173.259 78.5126 171.575 78.5126C169.89 78.5126 168.678 78.973 167.936 79.8938C167.218 80.7921 166.858 82.2182 166.858 84.1721Z" fill="#593691"/>
<path d="M156.505 75.7508H160.683V92.5947H156.505V75.7508ZM156.168 70.1924H161.019V73.3927H156.168V70.1924Z" fill="#593691"/>
<path d="M144.427 75.75H148.537V79.5567C149.547 76.8392 151.4 75.4805 154.095 75.4805H154.904V79.523H153.657C151.771 79.523 150.457 80.062 149.716 81.14C148.975 82.1955 148.604 83.835 148.604 86.0584V92.5938H144.427V75.75Z" fill="#593691"/>
<path d="M123.231 70.1924H135.224C137.447 70.1924 139.098 70.6977 140.176 71.7083C141.254 72.719 141.793 74.044 141.793 75.6835C141.793 77.2331 141.366 78.4459 140.513 79.3217C139.682 80.1976 138.615 80.7591 137.312 81.0061C138.772 81.2532 139.94 81.8258 140.816 82.7242C141.692 83.6225 142.13 84.8914 142.13 86.5309C142.13 88.4174 141.512 89.8997 140.277 90.9777C139.064 92.0557 137.301 92.5947 134.988 92.5947H123.231V70.1924ZM134.213 89.2596C135.381 89.2596 136.234 88.9564 136.773 88.35C137.335 87.7436 137.616 86.9464 137.616 85.9582C137.616 83.6899 136.324 82.5557 133.741 82.5557H127.543V89.2596H134.213ZM133.741 79.5575C134.999 79.5575 135.909 79.2993 136.47 78.7827C137.032 78.2662 137.312 77.5026 137.312 76.492C137.312 75.4813 137.065 74.7402 136.571 74.2686C136.077 73.7745 135.235 73.5275 134.045 73.5275H127.543V79.5575H133.741Z" fill="#593691"/>
<path d="M255.324 53.8115C255.324 52.1496 255.65 50.6449 256.301 49.2974C256.975 47.9274 257.974 46.8494 259.299 46.0633C260.647 45.2548 262.298 44.8506 264.251 44.8506C266.924 44.8506 268.979 45.5131 270.416 46.8382C271.876 48.1407 272.64 49.8476 272.707 51.9587H268.698C268.563 50.7908 268.148 49.87 267.452 49.1963C266.756 48.5001 265.734 48.152 264.386 48.152C262.792 48.152 261.579 48.5899 260.748 49.4658C259.939 50.3417 259.535 51.7902 259.535 53.8115C259.535 55.8552 259.928 57.315 260.714 58.1909C261.523 59.0443 262.713 59.471 264.285 59.471C265.7 59.471 266.767 59.1117 267.485 58.393C268.227 57.6743 268.676 56.7199 268.833 55.5296H272.842C272.797 56.8546 272.449 58.0674 271.797 59.1678C271.146 60.2458 270.192 61.1217 268.934 61.7955C267.676 62.4468 266.138 62.7724 264.319 62.7724C262.365 62.7724 260.714 62.3794 259.367 61.5933C258.019 60.7848 257.009 59.7068 256.335 58.3593C255.661 56.9894 255.324 55.4734 255.324 53.8115Z" fill="#593691"/>
<path d="M249.249 45.3876H253.426V62.2314H249.249V45.3876ZM248.912 39.8291H253.763V43.0294H248.912V39.8291Z" fill="#593691"/>
<path d="M242.491 52.2956C242.491 50.9031 242.21 49.8925 241.648 49.2637C241.087 48.6124 240.267 48.2867 239.189 48.2867C237.752 48.2867 236.674 48.8145 235.955 49.87C235.236 50.9031 234.877 52.5651 234.877 54.8558V62.2334H230.801V52.2956C230.801 50.9031 230.52 49.8925 229.959 49.2637C229.397 48.6124 228.578 48.2867 227.5 48.2867C226.062 48.2867 224.984 48.8145 224.266 49.87C223.547 50.9031 223.188 52.5651 223.188 54.8558V62.2334H219.01V45.3896H223.188V48.7584C224.333 46.1532 226.287 44.8506 229.049 44.8506C232.036 44.8506 233.878 46.2318 234.574 48.9942C235.697 46.2318 237.729 44.8506 240.671 44.8506C242.693 44.8506 244.197 45.4457 245.186 46.636C246.174 47.8263 246.668 49.5556 246.668 51.8239V62.2334H242.491V52.2956Z" fill="#593691"/>
<path d="M207.97 62.7724C205.948 62.7724 204.264 62.3794 202.917 61.5933C201.569 60.7848 200.57 59.7068 199.918 58.3593C199.267 56.9894 198.941 55.4622 198.941 53.7778C198.941 52.1159 199.267 50.6112 199.918 49.2637C200.57 47.9162 201.569 46.8494 202.917 46.0633C204.264 45.2548 205.948 44.8506 207.97 44.8506C209.968 44.8506 211.642 45.2548 212.989 46.0633C214.337 46.8718 215.336 47.9498 215.987 49.2974C216.639 50.6449 216.964 52.1383 216.964 53.7778C216.964 55.4397 216.639 56.9557 215.987 58.3256C215.336 59.6731 214.337 60.7511 212.989 61.5597C211.642 62.3682 209.968 62.7724 207.97 62.7724ZM203.152 53.8115C203.152 55.8552 203.523 57.315 204.264 58.1909C205.028 59.0443 206.263 59.471 207.97 59.471C209.654 59.471 210.867 59.0443 211.608 58.1909C212.372 57.315 212.753 55.8552 212.753 53.8115C212.753 51.7678 212.372 50.3192 211.608 49.4658C210.867 48.5899 209.654 48.152 207.97 48.152C206.263 48.152 205.028 48.5899 204.264 49.4658C203.523 50.3192 203.152 51.7678 203.152 53.8115Z" fill="#593691"/>
<path d="M180.765 45.3896H184.942V48.9605C185.504 47.6803 186.279 46.6809 187.267 45.9623C188.277 45.2212 189.535 44.8506 191.04 44.8506C193.196 44.8506 194.768 45.4457 195.756 46.636C196.744 47.8039 197.238 49.5332 197.238 51.8239V62.2334H193.061V52.3292C193.061 50.8694 192.758 49.8364 192.152 49.23C191.568 48.6011 190.714 48.2867 189.591 48.2867C188.042 48.2867 186.874 48.8145 186.088 49.87C185.324 50.9031 184.942 52.5651 184.942 54.8558V62.2334H180.765V45.3896Z" fill="#593691"/>
<path d="M169.725 62.7724C167.703 62.7724 166.019 62.3794 164.671 61.5933C163.324 60.7848 162.325 59.7068 161.673 58.3593C161.022 56.9894 160.696 55.4622 160.696 53.7778C160.696 52.1159 161.022 50.6112 161.673 49.2637C162.325 47.9162 163.324 46.8494 164.671 46.0633C166.019 45.2548 167.703 44.8506 169.725 44.8506C171.723 44.8506 173.397 45.2548 174.744 46.0633C176.092 46.8718 177.091 47.9498 177.742 49.2974C178.394 50.6449 178.719 52.1383 178.719 53.7778C178.719 55.4397 178.394 56.9557 177.742 58.3256C177.091 59.6731 176.092 60.7511 174.744 61.5597C173.397 62.3682 171.723 62.7724 169.725 62.7724ZM164.907 53.8115C164.907 55.8552 165.278 57.315 166.019 58.1909C166.783 59.0443 168.018 59.471 169.725 59.471C171.409 59.471 172.622 59.0443 173.363 58.1909C174.126 57.315 174.508 55.8552 174.508 53.8115C174.508 51.7678 174.126 50.3192 173.363 49.4658C172.622 48.5899 171.409 48.152 169.725 48.152C168.018 48.152 166.783 48.5899 166.019 49.4658C165.278 50.3192 164.907 51.7678 164.907 53.8115Z" fill="#593691"/>
<path d="M142.197 53.8115C142.197 52.1496 142.522 50.6449 143.174 49.2974C143.847 47.9274 144.847 46.8494 146.172 46.0633C147.519 45.2548 149.17 44.8506 151.124 44.8506C153.797 44.8506 155.851 45.5131 157.289 46.8382C158.749 48.1407 159.512 49.8476 159.58 51.9587H155.571C155.436 50.7908 155.021 49.87 154.324 49.1963C153.628 48.5001 152.606 48.152 151.259 48.152C149.664 48.152 148.451 48.5899 147.62 49.4658C146.812 50.3417 146.408 51.7902 146.408 53.8115C146.408 55.8552 146.801 57.315 147.587 58.1909C148.395 59.0443 149.586 59.471 151.158 59.471C152.573 59.471 153.639 59.1117 154.358 58.393C155.099 57.6743 155.548 56.7199 155.706 55.5296H159.714C159.669 56.8546 159.321 58.0674 158.67 59.1678C158.019 60.2458 157.064 61.1217 155.807 61.7955C154.549 62.4468 153.011 62.7724 151.191 62.7724C149.237 62.7724 147.587 62.3794 146.239 61.5933C144.892 60.7848 143.881 59.7068 143.207 58.3593C142.534 56.9894 142.197 55.4734 142.197 53.8115Z" fill="#593691"/>
<path d="M127.543 58.7952H140.58V62.2314H123.231V39.8291H140.479V43.2652H127.543V49.1606H139.468V52.4283H127.543V58.7952Z" fill="#593691"/>
<path d="M213.743 31.8717C212.306 31.8717 211.172 31.6696 210.341 31.2653C209.532 30.8611 208.96 30.2659 208.623 29.4799C208.286 28.6938 208.117 27.6495 208.117 26.3469V18.1945H204.984V16.1396L208.454 14.8258L210.172 11.1201H212.295V15.0279H217.415V18.1945H212.295V28.5366H217.011V31.8717H213.743Z" fill="#593691"/>
<path d="M187.649 15.0283H191.826V18.5991C192.388 17.319 193.162 16.3196 194.151 15.601C195.161 14.8598 196.419 14.4893 197.924 14.4893C200.08 14.4893 201.652 15.0844 202.64 16.2747C203.628 17.4425 204.122 19.1718 204.122 21.4626V31.8721H199.945V21.9679C199.945 20.5081 199.642 19.475 199.035 18.8687C198.451 18.2398 197.598 17.9254 196.475 17.9254C194.925 17.9254 193.758 18.4532 192.972 19.5087C192.208 20.5418 191.826 22.2037 191.826 24.4945V31.8721H187.649V15.0283Z" fill="#593691"/>
<path d="M177.262 32.4111C174.297 32.4111 172.085 31.5689 170.625 29.8845C169.188 28.2001 168.469 26.0441 168.469 23.4165C168.469 21.7321 168.795 20.2162 169.446 18.8687C170.097 17.5211 171.074 16.4544 172.377 15.6683C173.702 14.8823 175.33 14.4893 177.262 14.4893C179.148 14.4893 180.72 14.8823 181.978 15.6683C183.236 16.4319 184.168 17.4762 184.774 18.8013C185.38 20.1039 185.684 21.5861 185.684 23.248C185.684 23.8544 185.661 24.2924 185.616 24.5619H172.545C172.68 26.3361 173.152 27.5937 173.96 28.3349C174.791 29.076 175.925 29.4466 177.363 29.4466C179.698 29.4466 181.147 28.5595 181.708 26.7852H185.65C185.403 28.3124 184.617 29.6375 183.292 30.7604C181.989 31.8609 179.979 32.4111 177.262 32.4111ZM181.675 21.7995C181.585 20.3172 181.181 19.2168 180.462 18.4981C179.743 17.7794 178.688 17.4201 177.295 17.4201C175.903 17.4201 174.814 17.757 174.028 18.4307C173.264 19.1045 172.792 20.2274 172.613 21.7995H181.675Z" fill="#593691"/>
<path d="M156.288 32.4102C154.11 32.4102 152.504 31.815 151.471 30.6247C150.46 29.4344 149.955 27.7051 149.955 25.4368V15.0273H154.132V24.8978C154.132 26.3801 154.447 27.4356 155.076 28.0645C155.704 28.6708 156.603 28.974 157.771 28.974C159.163 28.974 160.252 28.4238 161.038 27.3233C161.847 26.2004 162.251 24.5609 162.251 22.4049V15.0273H166.428V31.8712H162.251V28.3676C161.106 31.0627 159.118 32.4102 156.288 32.4102Z" fill="#593691"/>
<path d="M142.915 8.29004H147.092V31.8714H142.915V8.29004Z" fill="#593691"/>
<path d="M123.231 9.46777H140.445V12.9039H127.543V19.1024H139.367V22.3701H127.543V31.87H123.231V9.46777Z" fill="#593691"/>
<defs>
<linearGradient id="paint0_linear_365_5876" x1="94.4415" y1="90.7908" x2="18.2718" y2="10.7481" gradientUnits="userSpaceOnUse">
<stop stop-color="#A870EF"/>
<stop offset="1" stop-color="#FEBA9C"/>
</linearGradient>
<linearGradient id="paint1_linear_365_5876" x1="94.4415" y1="90.7908" x2="18.2718" y2="10.7481" gradientUnits="userSpaceOnUse">
<stop offset="0.385" stop-color="#A870EF"/>
<stop offset="0.88" stop-color="#FEBA9C"/>
</linearGradient>
</defs>
</svg>
