<svg width="100" height="100" viewBox="0 0 100 100" fill="none" xmlns="http://www.w3.org/2000/svg">
<mask id="mask0_473_4750" style="mask-type:luminance" maskUnits="userSpaceOnUse" x="0" y="0" width="100" height="101">
<path d="M7.34119 75.8106C7.10399 75.4548 6.98539 75.099 6.74819 74.7432C4.9692 71.6596 3.3088 67.8644 2.1228 63.3576C1.5298 61.2228 0.8182 58.1392 0.581 54.4626C0.462401 53.5138 0.462402 52.565 0.462402 51.4976C0.462402 51.2604 0.462402 51.0232 0.462402 50.786C0.462402 50.6674 0.462402 50.5488 0.462402 50.5488C0.462402 50.3116 0.462402 49.9558 0.462402 49.7186C0.462402 48.2954 0.581003 46.9908 0.699603 45.6862C0.699603 45.2118 0.818201 44.856 0.818201 44.3816V44.263C0.818201 43.9072 0.936804 43.67 0.936804 43.4328C1.2926 41.0608 1.767 38.8074 2.36 36.7912C2.4786 36.4354 2.5972 36.0796 2.7158 35.6052C2.7158 35.4866 2.8344 35.2494 2.8344 35.1308C2.8344 35.0122 2.953 34.775 2.953 34.6564C2.953 34.5378 2.953 34.5378 3.0716 34.4192C3.0716 34.3006 3.0716 34.3006 3.1902 34.182C3.1902 34.0634 3.3088 33.9448 3.3088 33.8262C4.2576 31.3356 5.0878 29.438 5.7994 27.8962C5.7994 27.8962 5.79939 27.7776 5.91799 27.7776C6.03659 27.659 6.0366 27.4218 6.1552 27.3032C6.51099 26.7102 6.86679 25.9986 7.34119 25.287C7.57839 24.9312 7.81559 24.5754 7.93419 24.2196C8.52719 23.2708 9.23879 22.2034 9.83179 21.3732C10.1876 21.0174 10.4248 20.5431 10.7806 20.1873C10.8992 19.9501 11.1364 19.7128 11.255 19.4756C11.4922 19.2384 11.7294 18.8826 11.9666 18.6454C12.6782 17.8152 13.3898 16.9851 14.22 16.1549C14.813 15.4433 15.5246 14.8502 16.2362 14.1387C19.7942 10.8179 23.8266 7.97146 28.2148 5.83666C30.4682 4.65066 33.196 3.58327 36.3982 2.75307L36.754 2.63447C37.5842 2.39727 38.4144 2.16008 39.3632 1.92288C39.9562 1.80428 40.6678 1.68568 41.2608 1.56708C41.3794 1.56708 41.3794 1.56708 41.498 1.56708C42.4468 1.44848 42.9212 1.32987 43.7514 1.21127C43.87 1.21127 43.87 1.21127 43.9886 1.21127C44.8187 1.09267 45.4118 1.09268 46.1234 0.974076C46.5978 0.974076 47.0721 0.855469 47.5465 0.855469C47.5465 0.855469 47.5466 0.855469 47.6652 0.855469C48.2582 0.855469 48.9698 0.855469 49.5627 0.855469C49.5627 0.855469 49.5627 0.855469 49.6813 0.855469C50.2743 0.855469 50.7487 0.855469 51.3417 0.855469C51.6975 0.855469 52.1719 0.855469 52.5277 0.855469C52.6463 0.855469 52.7649 0.855469 53.0021 0.855469C56.7973 1.09267 59.8809 1.68568 61.7785 2.16007C62.0157 2.16007 62.1343 2.27866 62.2529 2.27866C63.0831 2.51586 63.9133 2.75306 64.6249 2.87166C64.8621 2.99026 65.0993 2.99028 65.3365 3.10888C66.4039 3.46468 67.7085 3.93906 69.4875 4.65066C77.4337 7.85286 84.1939 13.0713 89.4123 19.8314C89.5309 20.0686 89.7681 20.1872 89.8867 20.4244C89.8867 20.4244 89.8867 20.4245 89.8867 20.5431C90.7169 21.6105 91.4285 22.6778 92.0215 23.6266C92.0215 23.7452 92.1401 23.7453 92.1401 23.8639C92.6145 24.5755 93.0889 25.5242 93.5633 26.3544C93.6819 26.473 93.6819 26.5916 93.8005 26.7102L94.0377 27.1846C94.1563 27.5404 94.3935 27.7776 94.5121 28.1334C94.8679 28.845 95.2237 29.5566 95.5795 30.2682C95.8167 30.8612 96.0539 31.4542 96.2911 32.0472C96.2911 32.1658 96.2911 32.1658 96.4097 32.2844C96.5283 32.5216 96.5283 32.6402 96.6469 32.8774C96.7655 33.2332 96.8841 33.4704 97.0027 33.8262C97.0027 33.8262 97.0027 33.8262 97.0027 33.9448C97.0027 33.9448 97.0027 33.9448 97.0027 34.0634C99.9677 42.0096 100.679 50.3116 99.3747 58.6136C99.3747 58.8508 99.2561 59.088 99.2561 59.2066C99.2561 59.3252 99.2561 59.4438 99.2561 59.4438C99.2561 59.7996 99.1375 60.0368 99.1375 60.274C97.8329 66.9156 95.3423 72.8456 92.0215 77.8268C86.4473 86.6032 78.9755 92.6518 70.9107 95.9726C70.7921 95.9726 70.7921 96.0912 70.6735 96.0912C70.3177 96.2098 69.9619 96.447 69.4875 96.5656C69.3689 96.6842 69.1317 96.6842 69.0131 96.8028C68.7759 96.9214 68.5387 96.9214 68.4201 97.04C68.1829 97.1586 67.9457 97.2772 67.7085 97.2772C66.7597 97.633 66.1667 97.8702 66.1667 97.8702C65.3365 98.1074 64.8621 98.3446 63.9133 98.5818H63.7947C63.6761 98.5818 63.6761 98.5818 63.5575 98.5818C63.4389 98.5818 63.4389 98.5818 63.3203 98.5818C62.9645 98.7004 62.6087 98.819 62.2529 98.819H62.1343L61.5413 98.9376C60.8297 99.0562 59.9995 99.2934 59.2879 99.412C59.1693 99.412 59.1693 99.412 59.0507 99.412C58.9321 99.412 58.8135 99.412 58.6949 99.5306H58.5763C57.8647 99.6492 57.3903 99.7678 56.6787 99.7678C56.5601 99.7678 56.5601 99.7678 56.4415 99.7678C55.9671 99.7678 55.4927 99.8864 55.0183 99.8864C54.7811 99.8864 54.6625 99.8864 54.4253 99.8864C54.1881 99.8864 53.9509 99.8864 53.7137 99.8864C53.4765 99.8864 53.2393 99.8864 53.0021 99.8864C52.0533 99.8864 51.1045 100.005 50.1557 100.005C50.1557 100.005 50.1558 100.005 50.0372 100.005C44.9374 100.005 41.0236 99.1748 38.6516 98.5818C38.4144 98.5818 38.2958 98.4632 38.1772 98.4632C37.5842 98.3446 36.9912 98.1074 36.3982 97.9888C36.2796 97.9888 36.0424 97.8702 35.9238 97.8702C35.2122 97.633 34.1448 97.2772 32.8402 96.8028C30.3496 95.854 28.0962 94.7866 25.9614 93.6006C25.6056 93.3634 25.2498 93.2448 25.0126 93.0076C24.7754 92.889 24.5382 92.7704 24.301 92.5332C19.557 89.6868 16.1176 86.4846 13.627 83.7568C13.3898 83.5196 13.2712 83.2824 13.034 83.0452L12.9154 82.9266C10.662 80.436 8.88299 77.9454 7.4598 75.5734C7.3412 75.9292 7.34119 75.8106 7.34119 75.8106Z" fill="white"/>
</mask>
<g mask="url(#mask0_473_4750)">
<path d="M7.34119 75.8135C7.10399 75.4577 6.98539 75.1019 6.74819 74.7461C4.9692 71.6625 3.3088 67.8673 2.1228 63.3605C1.5298 61.2257 0.8182 58.1421 0.581 54.4655C0.462401 53.5167 0.462402 52.5679 0.462402 51.5005C0.462402 51.2633 0.462402 51.0261 0.462402 50.789C0.462402 50.6704 0.462402 50.5518 0.462402 50.5518C0.462402 50.3146 0.462402 49.9587 0.462402 49.7215C0.462402 48.2983 0.581003 46.9938 0.699603 45.6892C0.699603 45.2148 0.818201 44.8589 0.818201 44.3845V44.266C0.818201 43.9102 0.936804 43.673 0.936804 43.4358C1.2926 41.0638 1.767 38.8104 2.36 36.7942C2.4786 36.4384 2.5972 36.0826 2.7158 35.6082C2.7158 35.4896 2.8344 35.2524 2.8344 35.1338C2.8344 35.0152 2.953 34.778 2.953 34.6594C2.953 34.5408 2.953 34.5408 3.0716 34.4222C3.0716 34.3036 3.0716 34.3036 3.1902 34.185C3.1902 34.0664 3.3088 33.9478 3.3088 33.8292C4.2576 31.3386 5.0878 29.441 5.7994 27.8992C5.7994 27.8992 5.79939 27.7806 5.91799 27.7806C6.03659 27.662 6.0366 27.4248 6.1552 27.3062C6.51099 26.7132 6.86679 26.0016 7.34119 25.29C7.57839 24.9342 7.81559 24.5784 7.93419 24.2226C8.52719 23.2738 9.23879 22.2064 9.83179 21.3762C10.1876 21.0204 10.4248 20.546 10.7806 20.1902C10.8992 19.953 11.1364 19.7158 11.255 19.4786C11.4922 19.2414 11.7294 18.8856 11.9666 18.6484C12.6782 17.8182 13.3898 16.988 14.22 16.1578C14.813 15.4462 15.5246 14.8532 16.2362 14.1416C19.7942 10.8208 23.8266 7.97439 28.2148 5.83959C30.4682 4.65359 33.196 3.5862 36.3982 2.756L36.754 2.6374C37.5842 2.4002 38.4144 2.16301 39.3632 1.92581C39.9562 1.80721 40.6678 1.6886 41.2608 1.57C41.3794 1.57 41.3794 1.57 41.498 1.57C42.4468 1.45141 42.9212 1.3328 43.7514 1.2142C43.87 1.2142 43.87 1.2142 43.9886 1.2142C44.8187 1.0956 45.4118 1.09561 46.1234 0.977006C46.5978 0.977006 47.0721 0.858398 47.5465 0.858398C47.5465 0.858398 47.5466 0.858398 47.6652 0.858398C48.2582 0.858398 48.9698 0.858398 49.5627 0.858398C49.5627 0.858398 49.5627 0.858398 49.6813 0.858398C50.2743 0.858398 50.7487 0.858398 51.3417 0.858398C51.6975 0.858398 52.1719 0.858398 52.5277 0.858398C52.6463 0.858398 52.7649 0.858398 53.0021 0.858398C56.7973 1.0956 59.8809 1.6886 61.7785 2.163C62.0157 2.163 62.1343 2.28159 62.2529 2.28159C63.0831 2.51879 63.9133 2.75599 64.6249 2.87459C64.8621 2.99319 65.0993 2.99321 65.3365 3.11181C66.4039 3.46761 67.7085 3.94199 69.4875 4.65359C77.4337 7.85579 84.1939 13.0742 89.4123 19.8344C89.5309 20.0716 89.7681 20.1902 89.8867 20.4274C89.8867 20.4274 89.8867 20.4274 89.8867 20.546C90.7169 21.6134 91.4285 22.6808 92.0215 23.6296C92.0215 23.7482 92.1401 23.7482 92.1401 23.8668C92.6145 24.5784 93.0889 25.5272 93.5633 26.3574C93.6819 26.476 93.6819 26.5946 93.8005 26.7132L94.0377 27.1876C94.1563 27.5434 94.3935 27.7806 94.5121 28.1364C94.8679 28.848 95.2237 29.5596 95.5795 30.2712C95.8167 30.8642 96.0539 31.4572 96.2911 32.0502C96.2911 32.1688 96.2911 32.1688 96.4097 32.2874C96.5283 32.5246 96.5283 32.6432 96.6469 32.8804C96.7655 33.2362 96.8841 33.4734 97.0027 33.8292C97.0027 33.8292 97.0027 33.8292 97.0027 33.9478C97.0027 33.9478 97.0027 33.9478 97.0027 34.0664C99.9677 42.0126 100.679 50.3145 99.3747 58.6165C99.3747 58.8537 99.2561 59.0909 99.2561 59.2095C99.2561 59.3281 99.2561 59.4467 99.2561 59.4467C99.2561 59.8025 99.1375 60.0397 99.1375 60.2769C97.8329 66.9185 95.3423 72.8485 92.0215 77.8297C86.4473 86.6061 78.9755 92.6547 70.9107 95.9755C70.7921 95.9755 70.7921 96.0941 70.6735 96.0941C70.3177 96.2127 69.9619 96.4499 69.4875 96.5685C69.3689 96.6871 69.1317 96.6871 69.0131 96.8057C68.7759 96.9243 68.5387 96.9243 68.4201 97.0429C68.1829 97.1615 67.9457 97.2801 67.7085 97.2801C66.7597 97.6359 66.1667 97.8731 66.1667 97.8731C65.3365 98.1103 64.8621 98.3475 63.9133 98.5847H63.7947C63.6761 98.5847 63.6761 98.5847 63.5575 98.5847C63.4389 98.5847 63.4389 98.5847 63.3203 98.5847C62.9645 98.7033 62.6087 98.8219 62.2529 98.8219H62.1343L61.5413 98.9405C60.8297 99.0591 59.9995 99.2963 59.2879 99.4149C59.1693 99.4149 59.1693 99.4149 59.0507 99.4149C58.9321 99.4149 58.8135 99.4149 58.6949 99.5335H58.5763C57.8647 99.6521 57.3903 99.7707 56.6787 99.7707C56.5601 99.7707 56.5601 99.7707 56.4415 99.7707C55.9671 99.7707 55.4927 99.8893 55.0183 99.8893C54.7811 99.8893 54.6625 99.8893 54.4253 99.8893C54.1881 99.8893 53.9509 99.8893 53.7137 99.8893C53.4765 99.8893 53.2393 99.8893 53.0021 99.8893C52.0533 99.8893 51.1045 100.008 50.1557 100.008C50.1557 100.008 50.1558 100.008 50.0372 100.008C44.9374 100.008 41.0236 99.1777 38.6516 98.5847C38.4144 98.5847 38.2958 98.4661 38.1772 98.4661C37.5842 98.3475 36.9912 98.1103 36.3982 97.9917C36.2796 97.9917 36.0424 97.8731 35.9238 97.8731C35.2122 97.6359 34.1448 97.2801 32.8402 96.8057C30.3496 95.8569 28.0962 94.7895 25.9614 93.6035C25.6056 93.3663 25.2498 93.2477 25.0126 93.0105C24.7754 92.8919 24.5382 92.7733 24.301 92.5361C19.557 89.6897 16.1176 86.4875 13.627 83.7597C13.3898 83.5225 13.2712 83.2853 13.034 83.0481L12.9154 82.9295C10.662 80.4389 8.88299 77.9483 7.4598 75.5763C7.3412 75.9321 7.34119 75.8135 7.34119 75.8135Z" fill="url(#paint0_radial_473_4750)"/>
<path opacity="0.3" d="M114.912 92.0609C114.675 92.5353 114.556 92.8911 114.319 93.3655C114.319 93.4841 114.2 93.6027 114.2 93.6027C113.726 94.7887 113.133 95.9747 112.54 97.2793C112.421 97.5165 112.303 97.6351 112.303 97.8723L111.947 98.4653C111.71 98.9397 111.472 99.2955 111.235 99.7699C110.642 100.837 110.168 101.786 109.575 102.616C109.1 103.446 108.626 104.158 108.152 104.87C108.152 104.988 108.033 104.988 108.033 105.107C107.914 105.344 107.677 105.581 107.559 105.818C107.321 106.174 106.966 106.649 106.728 107.004C106.728 107.004 106.728 107.004 106.728 107.123C106.728 107.123 106.728 107.242 106.61 107.242C101.984 113.646 96.4102 119.22 90.0058 123.608C59.2884 93.3655 22.1667 69.7641 -18.2759 54.9391C-18.0387 53.3973 -17.6829 51.9741 -17.3271 50.5509C-17.2085 50.1951 -17.0899 49.7207 -16.9713 49.3649C-16.9713 49.3649 -16.9713 49.2463 -16.9713 49.1277C-15.7853 44.6209 -14.3621 40.5885 -12.7017 37.0305C-12.7017 36.9119 -12.7017 36.9119 -12.5831 36.7933C-12.3459 36.3189 -12.1087 35.8445 -11.8715 35.3701C-9.73669 30.982 -6.6531 26.0008 -2.3835 21.0196C-0.367303 18.529 2.5977 15.4454 6.63009 12.2432C7.57889 11.413 8.76489 10.5828 9.83229 9.75257C10.0695 9.51537 10.4253 9.39677 10.6625 9.15957C10.7811 9.04097 10.8997 9.04098 11.0183 8.92238C11.3741 8.68518 11.6113 8.44798 11.9671 8.32938C12.0857 8.21078 12.3229 8.09217 12.4415 7.97357C15.4065 18.8848 20.6249 29.2029 27.9781 37.8607C44.8192 57.7855 69.9624 67.9851 93.3266 79.6079C100.561 83.4031 107.914 87.4355 114.912 92.0609ZM45.4122 -3.05622C44.2262 -2.93762 43.1588 -2.9376 42.21 -2.819C41.9728 -2.819 41.7356 -2.70041 41.4984 -2.70041H41.617C41.4984 -2.70041 41.4984 -2.70041 41.3798 -2.70041C39.0079 -2.34461 36.1615 -1.87021 32.6035 -0.921415C32.3663 -0.921415 32.2477 -0.802808 32.0105 -0.802808C31.8919 -0.802808 31.7733 -0.684219 31.6547 -0.684219C31.5361 -0.684219 31.4175 -0.684211 31.4175 -0.565611C31.1803 -0.447012 30.9431 -0.447015 30.8245 -0.328415C30.5873 -0.209816 30.3501 -0.209819 30.1129 -0.0912193H29.9943C40.7869 19.715 57.7466 36.3189 78.2644 45.5697C90.836 51.2625 104.949 54.4647 118.707 53.2787C118.707 53.0415 118.588 52.6857 118.588 52.4485C118.114 49.9579 117.521 48.0603 117.047 46.5185V46.3999C117.047 46.3999 117.047 46.3999 117.047 46.2813C116.928 45.9255 116.809 45.6883 116.809 45.3325C116.572 44.3837 116.098 43.3163 115.742 42.1303C115.742 42.0117 115.623 41.7745 115.505 41.5373C114.556 38.9281 112.896 35.0144 110.049 30.389C109.931 30.2704 109.812 30.0331 109.693 29.9145C109.456 29.4401 109.1 28.9658 108.863 28.4914C108.389 27.7798 108.033 27.1867 107.559 26.5937C107.559 26.5937 107.559 26.5938 107.559 26.4752C107.084 25.7636 106.491 25.052 106.017 24.3404C106.017 24.3404 106.017 24.2218 105.898 24.2218C105.542 23.6288 105.068 23.1544 104.594 22.68C103.882 21.8498 103.408 21.2568 102.577 20.308C102.459 20.1894 102.459 20.1894 102.34 20.0708C101.629 19.2406 101.154 18.7662 100.205 17.8174C100.205 17.6988 100.087 17.6988 99.9682 17.5802C99.3752 16.9872 98.6636 16.2756 97.952 15.6826C97.0032 14.7338 96.0544 14.0222 95.1056 13.192L94.7498 12.8362C91.3104 9.98978 87.871 7.61777 84.6688 5.83877C78.6202 2.39938 72.3344 -0.0912156 65.5742 -1.51441C64.2696 -1.87021 62.965 -2.1074 61.6604 -2.226C60 -2.4632 58.4582 -2.7004 56.9164 -2.819C56.442 -2.819 55.9676 -2.93761 55.3746 -2.93761C55.0188 -2.93761 54.5444 -2.93762 54.1886 -3.05622C54.1886 -3.05622 54.1886 -3.05622 54.07 -3.05622C53.3584 -3.05622 52.6468 -3.1748 51.9352 -3.1748C50.512 -3.1748 48.4958 -3.1748 47.0726 -3.1748C46.5982 -3.0562 46.0052 -3.05622 45.4122 -3.05622Z" fill="url(#paint1_linear_473_4750)"/>
</g>
<defs>
<radialGradient id="paint0_radial_473_4750" cx="0" cy="0" r="1" gradientUnits="userSpaceOnUse" gradientTransform="translate(44.9991 50.3017) rotate(-162.011) scale(53.2169 53.2169)">
<stop offset="0.3418" stop-color="#CEA3F2"/>
<stop offset="0.9701" stop-color="#ECE5FA"/>
</radialGradient>
<linearGradient id="paint1_linear_473_4750" x1="29.8273" y1="-7.08054" x2="79.7891" y2="140.766" gradientUnits="userSpaceOnUse">
<stop offset="0.00502232" stop-color="white"/>
<stop offset="1" stop-color="white" stop-opacity="0"/>
</linearGradient>
</defs>
</svg>
