<svg width="13" height="13" viewBox="0 0 13 13" fill="none" xmlns="http://www.w3.org/2000/svg">
<g filter="url(#filter0_i_329_6000)">
<mask id="mask0_329_6000" style="mask-type:alpha" maskUnits="userSpaceOnUse" x="0" y="0" width="13" height="13">
<path d="M0.253369 6.87269C0.0911394 6.48104 0.0911395 6.04098 0.253369 5.64932L1.58028 2.44587C1.74251 2.05421 2.05368 1.74304 2.44534 1.58081L5.64879 0.253896C6.04045 0.0916669 6.48051 0.0916669 6.87217 0.253896L10.0756 1.58081C10.4673 1.74304 10.7784 2.05421 10.9407 2.44587L12.2676 5.64932C12.4298 6.04097 12.4298 6.48104 12.2676 6.87269L10.9407 10.0761C10.7784 10.4678 10.4673 10.779 10.0756 10.9412L6.87217 12.2681C6.48051 12.4303 6.04045 12.4303 5.64879 12.2681L2.44534 10.9412C2.05368 10.779 1.74251 10.4678 1.58028 10.0761L0.253369 6.87269Z" fill="#D9D9D9"/>
</mask>
<g mask="url(#mask0_329_6000)">
<path d="M0.253369 6.87269C0.0911394 6.48104 0.0911395 6.04098 0.253369 5.64932L1.58028 2.44587C1.74251 2.05421 2.05368 1.74304 2.44534 1.58081L5.64879 0.253896C6.04045 0.0916669 6.48051 0.0916669 6.87217 0.253896L10.0756 1.58081C10.4673 1.74304 10.7784 2.05421 10.9407 2.44587L12.2676 5.64932C12.4298 6.04097 12.4298 6.48104 12.2676 6.87269L10.9407 10.0761C10.7784 10.4678 10.4673 10.779 10.0756 10.9412L6.87217 12.2681C6.48051 12.4303 6.04045 12.4303 5.64879 12.2681L2.44534 10.9412C2.05368 10.779 1.74251 10.4678 1.58028 10.0761L0.253369 6.87269Z" fill="#FF5F6D"/>
<g filter="url(#filter1_f_329_6000)">
<path fill-rule="evenodd" clip-rule="evenodd" d="M-3.66905 5.6753C-3.82712 6.05691 -3.82712 6.48569 -3.66905 6.86731L-1.18507 12.8642C-1.027 13.2458 -0.723804 13.549 -0.342189 13.707L5.65467 16.191C6.03628 16.3491 6.46506 16.3491 6.84668 16.191L12.8435 13.707C13.2251 13.549 13.5283 13.2458 13.6864 12.8642L16.1704 6.8673C16.3285 6.48569 16.3285 6.05691 16.1704 5.6753L16.0406 5.36189L14.5935 8.85542C14.4354 9.23703 14.1322 9.54022 13.7506 9.6983L10.0239 11.2419C9.64232 11.4 9.21354 11.4 8.83193 11.2419L5.10524 9.6983C4.72362 9.54023 4.42043 9.23703 4.26236 8.85542L2.71872 5.12873C2.56065 4.74711 2.56065 4.31834 2.71872 3.93672L4.26236 0.210033C4.42043 -0.171582 4.72362 -0.474774 5.10524 -0.632845L8.83193 -2.17649C9.21354 -2.33456 9.64232 -2.33456 10.0239 -2.17649L13.3927 -0.781102C13.241 -0.945637 13.0542 -1.07716 12.8435 -1.16444L6.84668 -3.64842C6.46506 -3.80648 6.03628 -3.80648 5.65467 -3.64842L-0.342189 -1.16444C-0.723805 -1.00637 -1.027 -0.703173 -1.18507 -0.321558L-3.66905 5.6753Z" fill="#FFC371"/>
</g>
</g>
</g>
<defs>
<filter id="filter0_i_329_6000" x="0.131836" y="0.131836" width="12.2573" height="12.2578" filterUnits="userSpaceOnUse" color-interpolation-filters="sRGB">
<feFlood flood-opacity="0" result="BackgroundImageFix"/>
<feBlend mode="normal" in="SourceGraphic" in2="BackgroundImageFix" result="shape"/>
<feColorMatrix in="SourceAlpha" type="matrix" values="0 0 0 0 0 0 0 0 0 0 0 0 0 0 0 0 0 0 127 0" result="hardAlpha"/>
<feOffset/>
<feGaussianBlur stdDeviation="1.06561"/>
<feComposite in2="hardAlpha" operator="arithmetic" k2="-1" k3="1"/>
<feColorMatrix type="matrix" values="0 0 0 0 1 0 0 0 0 1 0 0 0 0 1 0 0 0 1 0"/>
<feBlend mode="normal" in2="shape" result="effect1_innerShadow_329_6000"/>
</filter>
<filter id="filter1_f_329_6000" x="-9.84429" y="-9.82329" width="32.19" height="32.1896" filterUnits="userSpaceOnUse" color-interpolation-filters="sRGB">
<feFlood flood-opacity="0" result="BackgroundImageFix"/>
<feBlend mode="normal" in="SourceGraphic" in2="BackgroundImageFix" result="shape"/>
<feGaussianBlur stdDeviation="3.02835" result="effect1_foregroundBlur_329_6000"/>
</filter>
</defs>
</svg>
