<svg width="8" height="8" viewBox="0 0 8 8" fill="none" xmlns="http://www.w3.org/2000/svg">
<g filter="url(#filter0_i_329_5961)">
<mask id="mask0_329_5961" style="mask-type:alpha" maskUnits="userSpaceOnUse" x="0" y="0" width="8" height="8">
<path d="M7.55938 3.27107C7.72958 3.68196 7.72958 4.14364 7.55938 4.55453L6.94498 6.03784C6.77478 6.44873 6.44833 6.77518 6.03744 6.94538L4.55412 7.55979C4.14323 7.72998 3.68156 7.72998 3.27067 7.55979L1.78736 6.94538C1.37646 6.77518 1.05001 6.44873 0.879817 6.03784L0.265409 4.55453C0.095212 4.14364 0.095212 3.68196 0.265409 3.27107L0.879817 1.78776C1.05001 1.37687 1.37647 1.05042 1.78736 0.88022L3.27067 0.265812C3.68156 0.0956154 4.14323 0.0956155 4.55412 0.265812L6.03744 0.88022C6.44833 1.05042 6.77478 1.37687 6.94498 1.78776L7.55938 3.27107Z" fill="#D9D9D9"/>
</mask>
<g mask="url(#mask0_329_5961)">
<path d="M7.55938 3.27107C7.72958 3.68196 7.72958 4.14364 7.55938 4.55453L6.94498 6.03784C6.77478 6.44873 6.44833 6.77518 6.03744 6.94538L4.55412 7.55979C4.14323 7.72998 3.68156 7.72998 3.27067 7.55979L1.78736 6.94538C1.37646 6.77518 1.05001 6.44873 0.879817 6.03784L0.265409 4.55453C0.095212 4.14364 0.095212 3.68196 0.265409 3.27107L0.879817 1.78776C1.05001 1.37687 1.37647 1.05042 1.78736 0.88022L3.27067 0.265812C3.68156 0.0956154 4.14323 0.0956155 4.55412 0.265812L6.03744 0.88022C6.44833 1.05042 6.77478 1.37687 6.94498 1.78776L7.55938 3.27107Z" fill="#CF8BF3"/>
<g filter="url(#filter1_f_329_5961)">
<path fill-rule="evenodd" clip-rule="evenodd" d="M4.10189 -0.740056C3.82135 -0.772227 3.53461 -0.733318 3.26907 -0.623329L1.15695 0.251541C0.746058 0.421738 0.419606 0.74819 0.24941 1.15908L-0.625461 3.2712C-0.795657 3.68209 -0.795657 4.14377 -0.625461 4.55466L0.24941 6.66678C0.419606 7.07767 0.746058 7.40412 1.15695 7.57432L3.26907 8.44919C3.67996 8.61939 4.14164 8.61939 4.55253 8.44919L6.66465 7.57432C7.07554 7.40412 7.40199 7.07767 7.57219 6.66678L8.44706 4.55466C8.56168 4.27794 8.59911 3.97818 8.55934 3.68642L7.92563 5.21633C7.75544 5.62722 7.42899 5.95368 7.01809 6.12387L5.44772 6.77434C5.03682 6.94454 4.57515 6.94454 4.16426 6.77434L2.59388 6.12387C2.18299 5.95368 1.85654 5.62722 1.68634 5.21633L1.03587 3.64595C0.865675 3.23506 0.865675 2.77339 1.03587 2.3625L1.68634 0.792121C1.85654 0.38123 2.18299 0.054779 2.59388 -0.115418L4.10189 -0.740056Z" fill="#FDB99B"/>
</g>
<g filter="url(#filter2_f_329_5961)">
<path fill-rule="evenodd" clip-rule="evenodd" d="M8.4622 2.36762C8.63239 2.77851 8.63239 3.24018 8.4622 3.65108L7.58332 5.77287C7.47336 6.03834 7.29817 6.26857 7.07712 6.44418L7.55975 5.27902C7.72995 4.86813 7.72995 4.40646 7.55975 3.99556L6.99743 2.63801C6.82724 2.22712 6.50078 1.90067 6.08989 1.73047L4.73234 1.16816C4.32145 0.997963 3.85978 0.997963 3.44889 1.16816L2.09134 1.73048C1.68045 1.90067 1.354 2.22712 1.1838 2.63801L0.621483 3.99557C0.451286 4.40646 0.451286 4.86813 0.621483 5.27902L1.1838 6.63657C1.19378 6.66068 1.20431 6.6845 1.21536 6.70801L1.14873 6.68041C0.73784 6.51021 0.411388 6.18376 0.241192 5.77287L-0.637685 3.65107C-0.807882 3.24018 -0.807881 2.77851 -0.637685 2.36762L0.241192 0.245823C0.411388 -0.165068 0.737841 -0.49152 1.14873 -0.661716L3.27053 -1.54059C3.68142 -1.71079 4.14309 -1.71079 4.55398 -1.54059L6.67578 -0.661716C7.08667 -0.491519 7.41312 -0.165068 7.58332 0.245823L8.4622 2.36762Z" fill="#A870EF"/>
</g>
</g>
</g>
<defs>
<filter id="filter0_i_329_5961" x="0.137695" y="0.137695" width="7.54932" height="7.5498" filterUnits="userSpaceOnUse" color-interpolation-filters="sRGB">
<feFlood flood-opacity="0" result="BackgroundImageFix"/>
<feBlend mode="normal" in="SourceGraphic" in2="BackgroundImageFix" result="shape"/>
<feColorMatrix in="SourceAlpha" type="matrix" values="0 0 0 0 0 0 0 0 0 0 0 0 0 0 0 0 0 0 127 0" result="hardAlpha"/>
<feOffset/>
<feGaussianBlur stdDeviation="0.402"/>
<feComposite in2="hardAlpha" operator="arithmetic" k2="-1" k3="1"/>
<feColorMatrix type="matrix" values="0 0 0 0 1 0 0 0 0 1 0 0 0 0 1 0 0 0 1 0"/>
<feBlend mode="normal" in2="shape" result="effect1_innerShadow_329_5961"/>
</filter>
<filter id="filter1_f_329_5961" x="-2.89693" y="-2.89498" width="13.6156" height="13.6161" filterUnits="userSpaceOnUse" color-interpolation-filters="sRGB">
<feFlood flood-opacity="0" result="BackgroundImageFix"/>
<feBlend mode="normal" in="SourceGraphic" in2="BackgroundImageFix" result="shape"/>
<feGaussianBlur stdDeviation="1.072" result="effect1_foregroundBlur_329_5961"/>
</filter>
<filter id="filter2_f_329_5961" x="-2.90914" y="-3.81197" width="13.643" height="12.664" filterUnits="userSpaceOnUse" color-interpolation-filters="sRGB">
<feFlood flood-opacity="0" result="BackgroundImageFix"/>
<feBlend mode="normal" in="SourceGraphic" in2="BackgroundImageFix" result="shape"/>
<feGaussianBlur stdDeviation="1.072" result="effect1_foregroundBlur_329_5961"/>
</filter>
</defs>
</svg>
